<?xml version="1.0" standalone="no"?>
<!DOCTYPE svg PUBLIC "-//W3C//DTD SVG 20010904//EN"
 "http://www.w3.org/TR/2001/REC-SVG-20010904/DTD/svg10.dtd">
<svg version="1.0" xmlns="http://www.w3.org/2000/svg"
 width="48.000000pt" height="48.000000pt" viewBox="0 0 48.000000 48.000000"
 preserveAspectRatio="xMidYMid meet">

<g transform="translate(0.000000,48.000000) scale(0.100000,-0.100000)"
fill="#000000" stroke="none">
<path d="M130 440 c-22 -22 -28 -88 -9 -107 8 -8 6 -17 -10 -34 -25 -27 -27
-66 -5 -97 14 -20 14 -24 0 -44 -38 -54 5 -128 74 -128 10 0 31 10 45 23 21
18 27 34 32 90 5 62 7 66 23 52 56 -51 122 35 69 91 -20 22 -20 22 -1 28 20 7
42 45 42 75 0 10 -9 30 -21 45 -20 25 -24 26 -120 26 -86 0 -102 -3 -119 -20z
m224 -42 c8 -22 6 -32 -9 -48 -15 -17 -30 -20 -92 -20 -89 0 -113 10 -113 48
0 46 16 53 115 50 87 -3 90 -4 99 -30z m-134 -153 c0 -60 -9 -66 -64 -45 -59
22 -36 100 31 100 l33 0 0 -55z m70 51 c0 -2 -7 -9 -15 -16 -12 -10 -15 -10
-15 4 0 9 7 16 15 16 8 0 15 -2 15 -4z m-70 -176 c0 -34 -4 -42 -26 -52 -45
-21 -87 21 -66 66 10 22 18 26 52 26 l40 0 0 -40z"/>
</g>
</svg>
